<?xml version="1.0" encoding="utf-8"?>
<!-- Generator: Adobe Illustrator 16.0.0, SVG Export Plug-In . SVG Version: 6.00 Build 0)  -->
<!DOCTYPE svg PUBLIC "-//W3C//DTD SVG 1.1//EN" "http://www.w3.org/Graphics/SVG/1.1/DTD/svg11.dtd">
<svg version="1.1" id="레이어_1" xmlns="http://www.w3.org/2000/svg" xmlns:xlink="http://www.w3.org/1999/xlink" x="0px"
	 y="0px" width="100px" height="43.024px" viewBox="0 0 200 86.048" enable-background="new 0 0 200 86.048" xml:space="preserve">
<polygon fill="#E1002A" points="23.102,0 23.102,0 -0.233,18.292 -0.233,28.524 10,28.524 10,28.523 21.341,19.68 21.341,84.363 
	23.002,86.021 23.029,86.047 23.029,86.048 34.029,86.048 34.03,86.048 35.712,84.361 35.712,1.687 34.024,0.002 "/>
<polygon fill="#E1002A" points="171.115,14.372 156.744,0 156.744,0 109.271,0 107.614,1.662 107.586,1.638 107.586,1.688 
	107.586,1.689 107.586,12.689 107.586,12.69 109.273,14.372 150.792,14.372 179.443,43.024 150.789,71.679 86.029,71.679 
	86.029,1.687 84.341,0.002 73.418,0 73.418,0 50.083,18.291 50.083,28.524 60.315,28.524 60.316,28.524 71.657,19.68 71.657,84.363 
	73.318,86.021 73.345,86.047 73.346,86.048 156.744,86.048 199.767,43.024 "/>
</svg>
